<svg width="23" height="22" viewBox="0 0 23 22" fill="none"
    xmlns="http://www.w3.org/2000/svg">
    <path d="M11.5 3.66663C12.5167 3.66663 13.4917 4.05293 14.2106 4.74057C14.9295 5.4282 15.3333 6.36083 15.3333 7.33329C15.3333 8.30575 14.9295 9.23838 14.2106 9.92602C13.4917 10.6137 12.5167 11 11.5 11C10.4833 11 9.50831 10.6137 8.78942 9.92602C8.07053 9.23838 7.66666 8.30575 7.66666 7.33329C7.66666 6.36083 8.07053 5.4282 8.78942 4.74057C9.50831 4.05293 10.4833 3.66663 11.5 3.66663ZM11.5 5.49996C10.9917 5.49996 10.5042 5.69311 10.1447 6.03693C9.78526 6.38075 9.58333 6.84706 9.58333 7.33329C9.58333 7.81952 9.78526 8.28584 10.1447 8.62965C10.5042 8.97347 10.9917 9.16663 11.5 9.16663C12.0083 9.16663 12.4958 8.97347 12.8553 8.62965C13.2147 8.28584 13.4167 7.81952 13.4167 7.33329C13.4167 6.84706 13.2147 6.38075 12.8553 6.03693C12.4958 5.69311 12.0083 5.49996 11.5 5.49996ZM11.5 11.9166C14.0587 11.9166 19.1667 13.1358 19.1667 15.5833V18.3333H3.83333V15.5833C3.83333 13.1358 8.94124 11.9166 11.5 11.9166ZM11.5 13.6583C8.65374 13.6583 5.65416 14.9966 5.65416 15.5833V16.5916H17.3458V15.5833C17.3458 14.9966 14.3462 13.6583 11.5 13.6583Z" fill="#828282" />
</svg>